<?xml version="1.0" encoding="UTF-8"?>
<svg version="1.1" xmlns="http://www.w3.org/2000/svg" width="512" height="512">
<path d="M0 0 C168.96 0 337.92 0 512 0 C512 168.96 512 337.92 512 512 C343.04 512 174.08 512 0 512 C0 343.04 0 174.08 0 0 Z " fill="#59584A" transform="translate(0,0)"/>
<path d="M0 0 C168.96 0 337.92 0 512 0 C512 168.96 512 337.92 512 512 C343.04 512 174.08 512 0 512 C0 343.04 0 174.08 0 0 Z M102 51 C102 55.29 102 59.58 102 64 C98.04 64 94.08 64 90 64 C90 68.29 90 72.58 90 77 C85.71 77 81.42 77 77 77 C77 81.29 77 85.58 77 90 C72.71 90 68.42 90 64 90 C64 93.96 64 97.92 64 102 C59.71 102 55.42 102 51 102 C51 203.64 51 305.28 51 410 C55.29 410 59.58 410 64 410 C64 413.96 64 417.92 64 422 C68.29 422 72.58 422 77 422 C77 426.29 77 430.58 77 435 C81.29 435 85.58 435 90 435 C90 439.29 90 443.58 90 448 C93.96 448 97.92 448 102 448 C102 452.29 102 456.58 102 461 C203.64 461 305.28 461 410 461 C410 456.71 410 452.42 410 448 C413.96 448 417.92 448 422 448 C422 443.71 422 439.42 422 435 C426.29 435 430.58 435 435 435 C435 430.71 435 426.42 435 422 C439.29 422 443.58 422 448 422 C448 418.04 448 414.08 448 410 C452.29 410 456.58 410 461 410 C461 308.36 461 206.72 461 102 C456.71 102 452.42 102 448 102 C448 98.04 448 94.08 448 90 C443.71 90 439.42 90 435 90 C435 85.71 435 81.42 435 77 C430.71 77 426.42 77 422 77 C422 72.71 422 68.42 422 64 C418.04 64 414.08 64 410 64 C410 59.71 410 55.42 410 51 C308.36 51 206.72 51 102 51 Z " fill="#2A1010" transform="translate(0,0)"/>
<path d="M0 0 C101.64 0 203.28 0 308 0 C308 4.29 308 8.58 308 13 C311.96 13 315.92 13 320 13 C320 17.29 320 21.58 320 26 C324.29 26 328.58 26 333 26 C333 30.29 333 34.58 333 39 C337.29 39 341.58 39 346 39 C346 42.96 346 46.92 346 51 C350.29 51 354.58 51 359 51 C359 101.82 359 152.64 359 205 C299.93 205 240.86 205 180 205 C180 213.58 180 222.16 180 231 C175.71 231 171.42 231 167 231 C167 234.96 167 238.92 167 243 C158.42 243 149.84 243 141 243 C141 234.75 141 226.5 141 218 C136.71 218 132.42 218 128 218 C128 213.71 128 209.42 128 205 C126.10326538 205.11589478 126.10326538 205.11589478 124.16821289 205.23413086 C102.63863373 206.38787902 81.11025267 205.9047086 59.56280518 205.60510254 C53.36739476 205.52064992 47.171857 205.44614662 40.97634125 205.36989594 C31.65077758 205.25404837 22.32545776 205.12588884 13 205 C13 183.88 13 162.76 13 141 C-8.12 141 -29.24 141 -51 141 C-51 111.3 -51 81.6 -51 51 C-46.71 51 -42.42 51 -38 51 C-38 47.04 -38 43.08 -38 39 C-33.71 39 -29.42 39 -25 39 C-25 34.71 -25 30.42 -25 26 C-20.71 26 -16.42 26 -12 26 C-12 21.71 -12 17.42 -12 13 C-8.04 13 -4.08 13 0 13 C0 8.71 0 4.42 0 0 Z " fill="#626272" transform="translate(102,51)"/>
<path d="M0 0 C25.74 0 51.48 0 78 0 C78 4.29 78 8.58 78 13 C81.96 13 85.92 13 90 13 C90 17.29 90 21.58 90 26 C94.29 26 98.58 26 103 26 C103 29.96 103 33.92 103 38 C107.29 38 111.58 38 116 38 C116 42.29 116 46.58 116 51 C120.29 51 124.58 51 129 51 C129 55.29 129 59.58 129 64 C132.96 64 136.92 64 141 64 C141 72.58 141 81.16 141 90 C145.29 90 149.58 90 154 90 C154 102.54 154 115.08 154 128 C158.29 128 162.58 128 167 128 C168.51993707 149.27911893 167.42658136 170.67093205 167 192 C129.05 192 91.1 192 52 192 C52 200.58 52 209.16 52 218 C47.71 218 43.42 218 39 218 C39 221.96 39 225.92 39 230 C30.42 230 21.84 230 13 230 C13 221.75 13 213.5 13 205 C8.71 205 4.42 205 0 205 C0 200.71 0 196.42 0 192 C-3.96 192 -7.92 192 -12 192 C-12 187.71 -12 183.42 -12 179 C-16.29 179 -20.58 179 -25 179 C-25 162.17 -25 145.34 -25 128 C-29.29 128 -33.58 128 -38 128 C-38 119.42 -38 110.84 -38 102 C-29.75 102 -21.5 102 -13 102 C-13 93.75 -13 85.5 -13 77 C-8.71 77 -4.42 77 0 77 C0 68.42 0 59.84 0 51 C4.29 51 8.58 51 13 51 C13 59.58 13 68.16 13 77 C21.58 77 30.16 77 39 77 C39 72.71 39 68.42 39 64 C34.71 64 30.42 64 26 64 C26 55.42 26 46.84 26 38 C21.71 38 17.42 38 13 38 C13 34.04 13 30.08 13 26 C8.71 26 4.42 26 0 26 C0 17.42 0 8.84 0 0 Z " fill="#69685E" transform="translate(230,64)"/>
<path d="M0 0 C21.12 0 42.24 0 64 0 C64 50.82 64 101.64 64 154 C59.71 154 55.42 154 51 154 C51 157.96 51 161.92 51 166 C46.71 166 42.42 166 38 166 C38 170.29 38 174.58 38 179 C33.71 179 29.42 179 25 179 C25 183.29 25 187.58 25 192 C21.04 192 17.08 192 13 192 C13 196.29 13 200.58 13 205 C-88.64 205 -190.28 205 -295 205 C-295 200.71 -295 196.42 -295 192 C-298.96 192 -302.92 192 -307 192 C-307 187.71 -307 183.42 -307 179 C-311.29 179 -315.58 179 -320 179 C-320 174.71 -320 170.42 -320 166 C-324.29 166 -328.58 166 -333 166 C-333 162.04 -333 158.08 -333 154 C-337.29 154 -341.58 154 -346 154 C-346 149.71 -346 145.42 -346 141 C-333.46 141 -320.92 141 -308 141 C-308 149.58 -308 158.16 -308 167 C-299.42 166.67 -290.84 166.34 -282 166 C-281.67 157.75 -281.34 149.5 -281 141 C-272.75 141 -264.5 141 -256 141 C-255.505 147.435 -255.505 147.435 -255 154 C-242.79 154 -230.58 154 -218 154 C-218 158.29 -218 162.58 -218 167 C-213.71 167 -209.42 167 -205 167 C-205 170.96 -205 174.92 -205 179 C-200.71 179 -196.42 179 -192 179 C-192 166.46 -192 153.92 -192 141 C-179.46 141 -166.92 141 -154 141 C-154 107.34 -154 73.68 -154 39 C-145.42 39 -136.84 39 -128 39 C-128 72.66 -128 106.32 -128 141 C-86.09 141 -44.18 141 -1 141 C-1 149.58 -1 158.16 -1 167 C7.91 167 16.82 167 26 167 C26 158.42 26 149.84 26 141 C29.96 141 33.92 141 38 141 C38 103.05 38 65.1 38 26 C34.04 26 30.08 26 26 26 C26 34.25 26 42.5 26 51 C17.42 51 8.84 51 0 51 C0 34.17 0 17.34 0 0 Z " fill="#4B4A36" transform="translate(397,256)"/>
<path d="M0 0 C59.4 0 118.8 0 180 0 C180 4.29 180 8.58 180 13 C183.96 13 187.92 13 192 13 C192 17.29 192 21.58 192 26 C196.29 26 200.58 26 205 26 C205 30.29 205 34.58 205 39 C209.29 39 213.58 39 218 39 C218 42.96 218 46.92 218 51 C222.29 51 226.58 51 231 51 C231 101.82 231 152.64 231 205 C209.88 205 188.76 205 167 205 C167 183.88 167 162.76 167 141 C162.71 141 158.42 141 154 141 C154 128.46 154 115.92 154 103 C149.71 103 145.42 103 141 103 C141 94.42 141 85.84 141 77 C137.04 77 133.08 77 129 77 C129 72.71 129 68.42 129 64 C124.71 64 120.42 64 116 64 C116 59.71 116 55.42 116 51 C111.71 51 107.42 51 103 51 C103 47.04 103 43.08 103 39 C98.71 39 94.42 39 90 39 C90 34.71 90 30.42 90 26 C86.04 26 82.08 26 78 26 C78 21.71 78 17.42 78 13 C69.42 13 60.84 13 52 13 C52 21.25 52 29.5 52 38 C51.67 38 51.34 38 51 38 C51 29.75 51 21.5 51 13 C34.17 13 17.34 13 0 13 C0 8.71 0 4.42 0 0 Z " fill="#616171" transform="translate(230,51)"/>
<path d="M0 0 C21.12 0 42.24 0 64 0 C64 42.24 64 84.48 64 128 C68.29 128 72.58 128 77 128 C77 140.54 77 153.08 77 166 C81.29 166 85.58 166 90 166 C90 174.58 90 183.16 90 192 C93.96 192 97.92 192 102 192 C102 196.29 102 200.58 102 205 C119.16 205 136.32 205 154 205 C154 217.54 154 230.08 154 243 C149.71 243 145.42 243 141 243 C141 239.04 141 235.08 141 231 C136.71 231 132.42 231 128 231 C128 226.71 128 222.42 128 218 C115.46 218.33 102.92 218.66 90 219 C90 214.38 90 209.76 90 205 C81.75 205 73.5 205 65 205 C65.0395914 213.18252797 65.0395914 213.18252797 65.09008789 221.36499023 C65.09258545 222.37762939 65.09508301 223.39026855 65.09765625 224.43359375 C65.10289307 225.47572021 65.10812988 226.51784668 65.11352539 227.59155273 C65 230 65 230 64 231 C62.07332493 231.08748207 60.14348139 231.10697334 58.21484375 231.09765625 C57.16159912 231.09515869 56.10835449 231.09266113 55.02319336 231.09008789 C53.00077515 231.07643188 53.00077515 231.07643188 50.9375 231.0625 C46.668125 231.041875 42.39875 231.02125 38 231 C38 222.42 38 213.84 38 205 C25.46 205 12.92 205 0 205 C0 137.35 0 69.7 0 0 Z " fill="#45454B" transform="translate(51,192)"/>
<path d="M0 0 C4.29 0 8.58 0 13 0 C13 4.29 13 8.58 13 13 C17.29 13 21.58 13 26 13 C26 29.83 26 46.66 26 64 C29.96 64 33.92 64 38 64 C38 59.71 38 55.42 38 51 C46.58 51 55.16 51 64 51 C64 55.29 64 59.58 64 64 C59.71 64 55.42 64 51 64 C51 89.41 51 114.82 51 141 C46.71 141 42.42 141 38 141 C38 145.29 38 149.58 38 154 C34.04 154 30.08 154 26 154 C26 162.58 26 171.16 26 180 C21.71 180 17.42 180 13 180 C13 183.96 13 187.92 13 192 C4.42 192 -4.16 192 -13 192 C-13 183.75 -13 175.5 -13 167 C-17.29 167 -21.58 167 -26 167 C-26 162.71 -26 158.42 -26 154 C-29.96 154 -33.92 154 -38 154 C-38 149.71 -38 145.42 -38 141 C-42.29 141 -46.58 141 -51 141 C-51 124.17 -51 107.34 -51 90 C-55.29 90 -59.58 90 -64 90 C-64 81.42 -64 72.84 -64 64 C-55.75 64 -47.5 64 -39 64 C-39 55.75 -39 47.5 -39 39 C-34.71 39 -30.42 39 -26 39 C-26 30.42 -26 21.84 -26 13 C-21.71 13 -17.42 13 -13 13 C-13 21.58 -13 30.16 -13 39 C-4.42 39 4.16 39 13 39 C13 34.71 13 30.42 13 26 C8.71 26 4.42 26 0 26 C0 17.42 0 8.84 0 0 Z " fill="#EA564B" transform="translate(256,102)"/>
<path d="M0 0 C4.269375 -0.020625 8.53875 -0.04125 12.9375 -0.0625 C14.95991821 -0.07615601 14.95991821 -0.07615601 17.02319336 -0.09008789 C18.6030603 -0.09383423 18.6030603 -0.09383423 20.21484375 -0.09765625 C21.84087524 -0.10551147 21.84087524 -0.10551147 23.49975586 -0.11352539 C26 0 26 0 27 1 C27 9.25 27 17.5 27 26 C43.5 26 60 26 77 26 C77 21.71 77 17.42 77 13 C81.29 13 85.58 13 90 13 C90 21.58 90 30.16 90 39 C106.83 39 123.66 39 141 39 C141 43.29 141 47.58 141 52 C136.71 52 132.42 52 128 52 C128 60.25 128 68.5 128 77 C119.75 77 111.5 77 103 77 C103 85.58 103 94.16 103 103 C107.29 103 111.58 103 116 103 C116 119.83 116 136.66 116 154 C120.29 154 124.58 154 129 154 C129 158.29 129 162.58 129 167 C117.64252804 168.1106912 106.44097404 168.04168152 95.04296875 167.87890625 C93.04373267 167.85455362 91.04449029 167.83071281 89.04524231 167.80735779 C83.82568092 167.7450278 78.60623335 167.67582114 73.38677979 167.60510254 C67.10154526 167.52140653 60.81620164 167.44639252 54.53087616 167.36989594 C45.02048497 167.25318974 35.51029688 167.1255676 26 167 C26 145.88 26 124.76 26 103 C30.29 103 34.58 103 39 103 C39 90.13 39 77.26 39 64 C43.29 64 47.58 64 52 64 C52 60.04 52 56.08 52 52 C39.13 52 26.26 52 13 52 C13 43.42 13 34.84 13 26 C8.71 26 4.42 26 0 26 C0 17.42 0 8.84 0 0 Z " fill="#67665C" transform="translate(89,89)"/>
<path d="M0 0 C12.87 0 25.74 0 39 0 C39 8.25 39 16.5 39 25 C64.41 25 89.82 25 116 25 C116 16.75 116 8.5 116 0 C119.96 0 123.92 0 128 0 C128 37.95 128 75.9 128 115 C124.04 115 120.08 115 116 115 C116 123.58 116 132.16 116 141 C107.09 141 98.18 141 89 141 C89 132.42 89 123.84 89 115 C63.92 115 38.84 115 13 115 C13 102.13 13 89.26 13 76 C21.25 76 29.5 76 38 76 C38 67.75 38 59.5 38 51 C17.21 51 -3.58 51 -25 51 C-25 42.42 -25 33.84 -25 25 C-8.17 25 8.66 25 26 25 C26 20.71 26 16.42 26 12 C17.42 12 8.84 12 0 12 C0 8.04 0 4.08 0 0 Z " fill="#52514F" transform="translate(307,282)"/>
<path d="M0 0 C21.12 0 42.24 0 64 0 C64 50.82 64 101.64 64 154 C59.71 154 55.42 154 51 154 C51 157.96 51 161.92 51 166 C46.71 166 42.42 166 38 166 C38 170.29 38 174.58 38 179 C33.71 179 29.42 179 25 179 C25 183.29 25 187.58 25 192 C21.04 192 17.08 192 13 192 C13 196.29 13 200.58 13 205 C-29.24 205 -71.48 205 -115 205 C-115 200.71 -115 196.42 -115 192 C-106.75 192 -98.5 192 -90 192 C-90 187.71 -90 183.42 -90 179 C-85.71 179 -81.42 179 -77 179 C-77 175.04 -77 171.08 -77 167 C-72.71 167 -68.42 167 -64 167 C-64 162.71 -64 158.42 -64 154 C-59.71 154 -55.42 154 -51 154 C-51 149.71 -51 145.42 -51 141 C-34.5 141 -18 141 -1 141 C-1 149.58 -1 158.16 -1 167 C7.91 167 16.82 167 26 167 C26 158.42 26 149.84 26 141 C29.96 141 33.92 141 38 141 C38 103.05 38 65.1 38 26 C34.04 26 30.08 26 26 26 C26 34.25 26 42.5 26 51 C17.42 51 8.84 51 0 51 C0 34.17 0 17.34 0 0 Z " fill="#353537" transform="translate(397,256)"/>
<path d="M0 0 C29.7 0 59.4 0 90 0 C90 42.24 90 84.48 90 128 C68.88 128 47.76 128 26 128 C26 106.88 26 85.76 26 64 C21.71 64 17.42 64 13 64 C13 51.46 13 38.92 13 26 C8.71 26 4.42 26 0 26 C0 17.42 0 8.84 0 0 Z " fill="#52525D" transform="translate(371,128)"/>
<path d="M0 0 C12.54 0 25.08 0 38 0 C38 8.58 38 17.16 38 26 C46.58 25.67 55.16 25.34 64 25 C64.33 16.75 64.66 8.5 65 0 C73.25 0 81.5 0 90 0 C90.495 6.435 90.495 6.435 91 13 C103.21 13 115.42 13 128 13 C128 17.29 128 21.58 128 26 C132.29 26 136.58 26 141 26 C141 30.29 141 34.58 141 39 C145.29 39 149.58 39 154 39 C154 42.96 154 46.92 154 51 C162.25 51 170.5 51 179 51 C179 55.29 179 59.58 179 64 C136.76 64 94.52 64 51 64 C51 59.71 51 55.42 51 51 C47.04 51 43.08 51 39 51 C39 46.71 39 42.42 39 38 C34.71 38 30.42 38 26 38 C26 33.71 26 29.42 26 25 C21.71 25 17.42 25 13 25 C13 21.04 13 17.08 13 13 C8.71 13 4.42 13 0 13 C0 8.71 0 4.42 0 0 Z " fill="#343435" transform="translate(51,397)"/>
<path d="M0 0 C8.58 0 17.16 0 26 0 C26 4.29 26 8.58 26 13 C30.29 13 34.58 13 39 13 C39 25.54 39 38.08 39 51 C43.29 51 47.58 51 52 51 C52.09612779 59.7476288 51.766116 68.28543051 51 77 C47.04 77 43.08 77 39 77 C39 85.58 39 94.16 39 103 C34.71 103 30.42 103 26 103 C26 106.96 26 110.92 26 115 C17.42 115 8.84 115 0 115 C0 106.75 0 98.5 0 90 C-4.29 90 -8.58 90 -13 90 C-13 85.71 -13 81.42 -13 77 C-16.96 77 -20.92 77 -25 77 C-25 72.71 -25 68.42 -25 64 C-21.04 64 -17.08 64 -13 64 C-13 47.17 -13 30.34 -13 13 C-8.71 13 -4.42 13 0 13 C0 8.71 0 4.42 0 0 Z " fill="#FD8F65" transform="translate(243,179)"/>
<path d="M0 0 C25.74 0 51.48 0 78 0 C78 4.29 78 8.58 78 13 C81.96 13 85.92 13 90 13 C90 17.29 90 21.58 90 26 C94.29 26 98.58 26 103 26 C103 29.96 103 33.92 103 38 C107.29 38 111.58 38 116 38 C116 42.29 116 46.58 116 51 C119.96 51 123.92 51 128 51 C128 55.29 128 59.58 128 64 C102.92 64 77.84 64 52 64 C52 59.71 52 55.42 52 51 C47.71 51 43.42 51 39 51 C39 46.71 39 42.42 39 38 C30.42 38 21.84 38 13 38 C13 34.04 13 30.08 13 26 C8.71 26 4.42 26 0 26 C0 17.42 0 8.84 0 0 Z " fill="#75746F" transform="translate(230,64)"/>
<path d="M0 0 C16.83 0 33.66 0 51 0 C51 4.29 51 8.58 51 13 C63.87 13 76.74 13 90 13 C90 16.96 90 20.92 90 25 C85.71 25 81.42 25 77 25 C77 37.87 77 50.74 77 64 C51.59 64 26.18 64 0 64 C0 42.88 0 21.76 0 0 Z " fill="#5B5B68" transform="translate(51,128)"/>
<path d="M0 0 C20.79 0 41.58 0 63 0 C63 12.54 63 25.08 63 38 C67.62 38 72.24 38 77 38 C77 42.29 77 46.58 77 51 C65.64252804 52.1106912 54.44097404 52.04168152 43.04296875 51.87890625 C41.04373267 51.85455362 39.04449029 51.83071281 37.04524231 51.80735779 C31.82568092 51.7450278 26.60623335 51.67582114 21.38677979 51.60510254 C16.04371246 51.5339527 10.7005655 51.46941656 5.35742188 51.40429688 C-5.09514228 51.27594471 -15.54758139 51.13970349 -26 51 C-26 42.75 -26 34.5 -26 26 C-17.42 26 -8.84 26 0 26 C0 17.42 0 8.84 0 0 Z " fill="#6C6B61" transform="translate(141,205)"/>
<path d="M0 0 C0.69771011 0.00359528 1.39542023 0.00719055 2.11427307 0.01089478 C3.2117688 0.01067574 3.2117688 0.01067574 4.33143616 0.01045227 C6.76094989 0.0111515 9.19038789 0.01894432 11.61988831 0.02676392 C13.29997719 0.02862806 14.98006662 0.03005198 16.66015625 0.03105164 C21.09071849 0.03487709 25.52124815 0.04470761 29.95179749 0.05575562 C34.46941182 0.06596914 38.98703139 0.07054913 43.50465393 0.07559204 C52.37511328 0.08632986 61.24553987 0.10392688 70.11598206 0.12442017 C70.11598206 8.37442017 70.11598206 16.62442017 70.11598206 25.12442017 C61.86598206 25.12442017 53.61598206 25.12442017 45.11598206 25.12442017 C45.11598206 37.99442017 45.11598206 50.86442017 45.11598206 64.12442017 C28.28598206 64.12442017 11.45598206 64.12442017 -5.88401794 64.12442017 C-5.92412675 48.44187572 -5.92412675 48.44187572 -5.93284607 41.77871704 C-5.93883368 37.22458742 -5.94593177 32.67047781 -5.9594574 28.11636353 C-5.97028914 24.44649473 -5.97629539 20.77664739 -5.97889519 17.10676384 C-5.98074892 15.70367024 -5.98436855 14.30057787 -5.989748 12.89749336 C-5.99696214 10.93872336 -5.99742603 8.97993196 -5.99754333 7.02114868 C-5.99976395 5.90418106 -6.00198456 4.78721344 -6.00427246 3.63639832 C-5.79334937 -0.76954187 -3.93037688 0.00854307 0 0 Z " fill="#535242" transform="translate(274.88401794433594,332.8755798339844)"/>
<path d="M0 0 C8.58 0 17.16 0 26 0 C26 8.58 26 17.16 26 26 C30.29 26 34.58 26 39 26 C39 29.96 39 33.92 39 38 C43.29 38 47.58 38 52 38 C52 46.58 52 55.16 52 64 C56.29 64 60.58 64 65 64 C65 68.29 65 72.58 65 77 C56.42 77 47.84 77 39 77 C39 68.42 39 59.84 39 51 C34.71 51 30.42 51 26 51 C26 55.29 26 59.58 26 64 C9.17 64 -7.66 64 -25 64 C-25 51.13 -25 38.26 -25 25 C-20.71 25 -16.42 25 -12 25 C-12.020625 23.040625 -12.04125 21.08125 -12.0625 19.0625 C-12.08377188 17.04167124 -12.07244053 15.01964199 -12 13 C-11 12 -11 12 -8.49609375 11.90234375 C-5.6640625 11.93489583 -2.83203125 11.96744792 0 12 C0 8.04 0 4.08 0 0 Z " fill="#767570" transform="translate(204,64)"/>
<path d="M0 0 C8.58 0 17.16 0 26 0 C26 46.2 26 92.4 26 140 C17.42 140 8.84 140 0 140 C0 93.8 0 47.6 0 0 Z " fill="#2A1010" transform="translate(243,295)"/>
<path d="M0 0 C21.12 0 42.24 0 64 0 C64 25.41 64 50.82 64 77 C55.42 77 46.84 77 38 77 C38 60.17 38 43.34 38 26 C34.04 26 30.08 26 26 26 C26 34.25 26 42.5 26 51 C17.42 51 8.84 51 0 51 C0 34.17 0 17.34 0 0 Z " fill="#44444A" transform="translate(397,256)"/>
<path d="M0 0 C12.87 0 25.74 0 39 0 C39 8.25 39 16.5 39 25 C55.83 25 72.66 25 90 25 C90 29.29 90 33.58 90 38 C85.71 38 81.42 38 77 38 C77 42.29 77 46.58 77 51 C52.85813682 52.01109607 28.77821872 51.98518133 4.625 51.5625 C3.89222839 51.54968616 3.15945679 51.53687233 2.40447998 51.5236702 C-6.73064347 51.3626723 -15.86527347 51.18314535 -25 51 C-25 42.42 -25 33.84 -25 25 C-8.17 25 8.66 25 26 25 C26 20.71 26 16.42 26 12 C17.42 12 8.84 12 0 12 C0 8.04 0 4.08 0 0 Z " fill="#68675B" transform="translate(307,282)"/>
<path d="M0 0 C12.54 0 25.08 0 38 0 C38 12.54 38 25.08 38 38 C42.29 38 46.58 38 51 38 C51 42.29 51 46.58 51 51 C55.29 51 59.58 51 64 51 C64 55.29 64 59.58 64 64 C42.88 64.33 21.76 64.66 0 65 C0 43.55 0 22.1 0 0 Z " fill="#505059" transform="translate(64,269)"/>
<path d="M0 0 C8.58 0 17.16 0 26 0 C26 29.37 26 58.74 26 89 C17.42 89 8.84 89 0 89 C0 59.63 0 30.26 0 0 Z " fill="#FEB46F" transform="translate(243,205)"/>
<path d="M0 0 C21.12 0 42.24 0 64 0 C64 16.83 64 33.66 64 51 C59.71 51 55.42 51 51 51 C51 38.46 51 25.92 51 13 C38.46 13 25.92 13 13 13 C13 34.12 13 55.24 13 77 C8.71 77 4.42 77 0 77 C0 51.59 0 26.18 0 0 Z " fill="#44444A" transform="translate(51,256)"/>
<path d="M0 0 C4.269375 -0.020625 8.53875 -0.04125 12.9375 -0.0625 C14.95991821 -0.07615601 14.95991821 -0.07615601 17.02319336 -0.09008789 C18.6030603 -0.09383423 18.6030603 -0.09383423 20.21484375 -0.09765625 C21.84087524 -0.10551147 21.84087524 -0.10551147 23.49975586 -0.11352539 C26 0 26 0 27 1 C27.08737645 2.85369611 27.10698153 4.71067541 27.09765625 6.56640625 C27.09515869 7.57904541 27.09266113 8.59168457 27.09008789 9.63500977 C27.08098389 10.93108154 27.07187988 12.22715332 27.0625 13.5625 C27.041875 17.666875 27.02125 21.77125 27 26 C39.21 26 51.42 26 64 26 C64 30.29 64 34.58 64 39 C60.04 39 56.08 39 52 39 C52 43.29 52 47.58 52 52 C39.13 52 26.26 52 13 52 C13 43.42 13 34.84 13 26 C8.71 26 4.42 26 0 26 C0 17.42 0 8.84 0 0 Z " fill="#565661" transform="translate(89,89)"/>
<path d="M0 0 C8.58 0 17.16 0 26 0 C26 21.12 26 42.24 26 64 C17.42 64 8.84 64 0 64 C0 42.88 0 21.76 0 0 Z " fill="#3B3B3E" transform="translate(435,333)"/>
<path d="M0 0 C8.1969097 -0.02255425 16.39379545 -0.04091696 24.59072781 -0.05181217 C28.39651577 -0.0570402 32.20228148 -0.06413638 36.00805664 -0.07543945 C39.67792544 -0.0862712 43.34777278 -0.09227744 47.01765633 -0.09487724 C48.42074992 -0.09673097 49.82384229 -0.1003506 51.2269268 -0.10573006 C53.1856968 -0.11294419 55.1444882 -0.11340809 57.10327148 -0.11352539 C58.22023911 -0.115746 59.33720673 -0.11796661 60.48802185 -0.12025452 C63 0 63 0 64 1 C64 9.25 64 17.5 64 26 C46.84 26 29.68 26 12 26 C12 21.71 12 17.42 12 13 C8.04 13 4.08 13 0 13 C0 8.71 0 4.42 0 0 Z " fill="#636256" transform="translate(141,371)"/>
<path d="M0 0 C21.12 0 42.24 0 64 0 C64 8.58 64 17.16 64 26 C47.17 26 30.34 26 13 26 C13 21.71 13 17.42 13 13 C8.71 13 4.42 13 0 13 C0 8.71 0 4.42 0 0 Z " fill="#636356" transform="translate(115,307)"/>
<path d="M0 0 C3.96 0 7.92 0 12 0 C12 16.83 12 33.66 12 51 C-13.245 51.495 -13.245 51.495 -39 52 C-39 47.38 -39 42.76 -39 38 C-34.71 38 -30.42 38 -26 38 C-26 33.71 -26 29.42 -26 25 C-17.42 25 -8.84 25 0 25 C0 16.75 0 8.5 0 0 Z " fill="#53535D" transform="translate(423,282)"/>
<path d="M0 0 C12.87 0 25.74 0 39 0 C39 12.54 39 25.08 39 38 C34.71 38 30.42 38 26 38 C26 34.04 26 30.08 26 26 C21.71 26 17.42 26 13 26 C13 21.71 13 17.42 13 13 C8.71 13 4.42 13 0 13 C0 8.71 0 4.42 0 0 Z " fill="#585746" transform="translate(166,397)"/>
<path d="M0 0 C17.16 0 34.32 0 52 0 C52 3.96 52 7.92 52 12 C60.25 12 68.5 12 77 12 C77 12.33 77 12.66 77 13 C68.75 13 60.5 13 52 13 C52 21.25 52 29.5 52 38 C51.67 38 51.34 38 51 38 C51 29.75 51 21.5 51 13 C34.17 13 17.34 13 0 13 C0 8.71 0 4.42 0 0 Z " fill="#74706C" transform="translate(230,51)"/>
<path d="M0 0 C8.58 0 17.16 0 26 0 C26 8.58 26 17.16 26 26 C17.42 26 8.84 26 0 26 C0 17.42 0 8.84 0 0 Z " fill="#F8F156" transform="translate(397,397)"/>
<path d="M0 0 C8.58 0 17.16 0 26 0 C26 8.58 26 17.16 26 26 C17.42 26 8.84 26 0 26 C0 17.42 0 8.84 0 0 Z " fill="#BEBECC" transform="translate(89,397)"/>
<path d="M0 0 C8.58 0 17.16 0 26 0 C26 8.58 26 17.16 26 26 C17.42 26 8.84 26 0 26 C0 17.42 0 8.84 0 0 Z " fill="#27E950" transform="translate(397,89)"/>
<path d="M0 0 C8.58 0 17.16 0 26 0 C26 8.58 26 17.16 26 26 C17.42 26 8.84 26 0 26 C0 17.42 0 8.84 0 0 Z " fill="#EA3628" transform="translate(89,89)"/>
<path d="M0 0 C4.29 0 8.58 0 13 0 C13 3.96 13 7.92 13 12 C9.04 12 5.08 12 1 12 C1 16.29 1 20.58 1 25 C4.96 25 8.92 25 13 25 C13 33.58 13 42.16 13 51 C8.71 51 4.42 51 0 51 C0 34.17 0 17.34 0 0 Z " fill="#461C1C" transform="translate(243,295)"/>
<path d="M0 0 C12.87 0 25.74 0 39 0 C39 4.29 39 8.58 39 13 C26.13 13 13.26 13 0 13 C0 8.71 0 4.42 0 0 Z " fill="#4B4B54" transform="translate(102,128)"/>
<path d="M0 0 C4.29 0 8.58 0 13 0 C13 8.25 13 16.5 13 25 C17.29 25 21.58 25 26 25 C26 29.29 26 33.58 26 38 C21.71 38 17.42 38 13 38 C13 34.04 13 30.08 13 26 C8.71 26 4.42 26 0 26 C0 17.42 0 8.84 0 0 Z " fill="#EC554A" transform="translate(230,64)"/>
<path d="M0 0 C8.58 0 17.16 0 26 0 C26 4.29 26 8.58 26 13 C21.71 13 17.42 13 13 13 C13 16.96 13 20.92 13 25 C8.71 25 4.42 25 0 25 C0 16.75 0 8.5 0 0 Z " fill="#525140" transform="translate(320,397)"/>
<path d="M0 0 C3.96 0 7.92 0 12 0 C12 4.29 12 8.58 12 13 C16.29 13 20.58 13 25 13 C25 17.29 25 21.58 25 26 C12.625 26.495 12.625 26.495 0 27 C0 18.09 0 9.18 0 0 Z " fill="#444448" transform="translate(141,384)"/>
<path d="M0 0 C4.29 0 8.58 0 13 0 C13 4.29 13 8.58 13 13 C17.29 13 21.58 13 26 13 C26 16.96 26 20.92 26 25 C17.42 25 8.84 25 0 25 C0 16.75 0 8.5 0 0 Z " fill="#FC9066" transform="translate(243,269)"/>
<path d="M0 0 C8.25 0 16.5 0 25 0 C25 4.29 25 8.58 25 13 C21.04 13 17.08 13 13 13 C13 16.96 13 20.92 13 25 C8.71 25 4.42 25 0 25 C0 16.75 0 8.5 0 0 Z " fill="#EA564B" transform="translate(282,64)"/>
<path d="M0 0 C0.33 0 0.66 0 1 0 C1 4.29 1 8.58 1 13 C9.25 13 17.5 13 26 13 C26 16.96 26 20.92 26 25 C13.46 25 0.92 25 -12 25 C-12 21.04 -12 17.08 -12 13 C-8.04 13 -4.08 13 0 13 C0 8.71 0 4.42 0 0 Z " fill="#605F54" transform="translate(153,115)"/>
<path d="M0 0 C0.33 0 0.66 0 1 0 C1 4.29 1 8.58 1 13 C9.25 13 17.5 13 26 13 C26 17.29 26 21.58 26 26 C17.42 26 8.84 26 0 26 C0 17.42 0 8.84 0 0 Z " fill="#6D675D" transform="translate(243,115)"/>
<path d="M0 0 C4.29 0 8.58 0 13 0 C13 8.58 13 17.16 13 26 C8.71 26 4.42 26 0 26 C0 17.42 0 8.84 0 0 Z " fill="#5C5B4D" transform="translate(269,371)"/>
<path d="M0 0 C4.29 0 8.58 0 13 0 C13 8.58 13 17.16 13 26 C8.71 26 4.42 26 0 26 C0 17.42 0 8.84 0 0 Z " fill="#E7564B" transform="translate(307,89)"/>
<path d="M0 0 C0.33 0 0.66 0 1 0 C1 8.25 1 16.5 1 25 C9.25 25 17.5 25 26 25 C26 29.29 26 33.58 26 38 C21.71 38 17.42 38 13 38 C13 34.04 13 30.08 13 26 C8.71 26 4.42 26 0 26 C0 17.42 0 8.84 0 0 Z " fill="#DE594F" transform="translate(230,64)"/>
<path d="M0 0 C4.29 0 8.58 0 13 0 C13 4.29 13 8.58 13 13 C8.71 13 4.42 13 0 13 C0 8.71 0 4.42 0 0 Z " fill="#461C1C" transform="translate(243,371)"/>
<path d="M0 0 C4.29 0 8.58 0 13 0 C13 4.29 13 8.58 13 13 C8.71 13 4.42 13 0 13 C0 8.71 0 4.42 0 0 Z " fill="#E7564B" transform="translate(192,128)"/>
<path d="M0 0 C3.96 0 7.92 0 12 0 C12 4.29 12 8.58 12 13 C8.04 13 4.08 13 0 13 C0 8.71 0 4.42 0 0 Z " fill="#4F4E57" transform="translate(141,384)"/>
<path d="M0 0 C2.83203125 0.03255208 5.6640625 0.06510417 8.49609375 0.09765625 C8.49609375 4.38765625 8.49609375 8.67765625 8.49609375 13.09765625 C2.55609375 13.59265625 2.55609375 13.59265625 -3.50390625 14.09765625 C-3.53076563 11.95188988 -3.55023713 9.8060298 -3.56640625 7.66015625 C-3.57800781 6.46519531 -3.58960938 5.27023437 -3.6015625 4.0390625 C-3.47195922 0.13541183 -3.47195922 0.13541183 0 0 Z " fill="#58584A" transform="translate(272.50390625,319.90234375)"/>
<path d="M0 0 C3.96 0 7.92 0 12 0 C12 4.29 12 8.58 12 13 C8.04 13 4.08 13 0 13 C0 8.71 0 4.42 0 0 Z " fill="#EB564A" transform="translate(282,243)"/>
<path d="M0 0 C3.96 0 7.92 0 12 0 C12 4.29 12 8.58 12 13 C8.04 13 4.08 13 0 13 C0 8.71 0 4.42 0 0 Z " fill="#717069" transform="translate(244,115)"/>
<path d="M0 0 C3.96 0 7.92 0 12 0 C12 3.96 12 7.92 12 12 C8.04 12 4.08 12 0 12 C0 8.04 0 4.08 0 0 Z " fill="#646357" transform="translate(269,372)"/>
</svg>
