<?xml version="1.0" encoding="UTF-8"?>
<svg version="1.1" xmlns="http://www.w3.org/2000/svg" width="512" height="512">
<path d="M0 0 C168.96 0 337.92 0 512 0 C512 168.96 512 337.92 512 512 C343.04 512 174.08 512 0 512 C0 343.04 0 174.08 0 0 Z " fill="#2A1010" transform="translate(0,0)"/>
<path d="M0 0 C59.73 0 119.46 0 181 0 C181 2.31 181 4.62 181 7 C183.31 7 185.62 7 188 7 C188 9.64 188 12.28 188 15 C190.64 15 193.28 15 196 15 C196 17.64 196 20.28 196 23 C198.64 23 201.28 23 204 23 C204 25.31 204 27.62 204 30 C206.31 30 208.62 30 211 30 C211 74.88 211 119.76 211 166 C206.05 166 201.1 166 196 166 C196 178.21 196 190.42 196 203 C193.69 203 191.38 203 189 203 C189.01160156 204.07121094 189.02320313 205.14242187 189.03515625 206.24609375 C189.04453299 207.64322743 189.05363331 209.04036299 189.0625 210.4375 C189.07087891 211.14455078 189.07925781 211.85160156 189.08789062 212.58007812 C189.09653588 214.38693559 189.05220011 216.19387603 189 218 C188 219 188 219 184.62109375 219.09765625 C183.22652508 219.09191424 181.83198403 219.07890228 180.4375 219.0625 C177.983125 219.041875 175.52875 219.02125 173 219 C173 213.72 173 208.44 173 203 C148.25 203 123.5 203 98 203 C98 183.2 98 163.4 98 143 C93.05 143 88.1 143 83 143 C83.00523682 144.60439941 83.01047363 146.20879883 83.01586914 147.86181641 C83.03398717 153.82177166 83.04545693 159.78172448 83.05493164 165.74169922 C83.05995629 168.31982839 83.06677708 170.89795471 83.07543945 173.47607422 C83.08758677 177.18457746 83.09324706 180.89304297 83.09765625 184.6015625 C83.10281754 185.75177887 83.10797882 186.90199524 83.11329651 188.08706665 C83.11337204 189.16773407 83.11344757 190.24840149 83.11352539 191.36181641 C83.115746 192.30779694 83.11796661 193.25377747 83.12025452 194.22842407 C83 197 83 197 82 203 C75.07 203.33 68.14 203.66 61 204 C60.67 211.26 60.34 218.52 60 226 C57.69 226 55.38 226 53 226 C53 223.69 53 221.38 53 219 C50.36 219 47.72 219 45 219 C45 216.36 45 213.72 45 211 C37.74 211.33 30.48 211.66 23 212 C23 209.03 23 206.06 23 203 C18.05 203 13.1 203 8 203 C8 208.28 8 213.56 8 219 C5.545625 219.020625 3.09125 219.04125 0.5625 219.0625 C-0.21150146 219.071604 -0.98550293 219.08070801 -1.78295898 219.09008789 C-3.52221717 219.09724913 -5.26145304 219.05024702 -7 219 C-8 218 -8 218 -8.09765625 214.62109375 C-8.09191424 213.22652508 -8.07890228 211.83198403 -8.0625 210.4375 C-8.041875 207.983125 -8.02125 205.52875 -8 203 C-15.26 203 -22.52 203 -30 203 C-30 145.91 -30 88.82 -30 30 C-27.69 30 -25.38 30 -23 30 C-23 27.69 -23 25.38 -23 23 C-20.36 23 -17.72 23 -15 23 C-15 20.36 -15 17.72 -15 15 C-12.36 15 -9.72 15 -7 15 C-7 12.69 -7 10.38 -7 8 C-4.69 8 -2.38 8 0 8 C0 5.36 0 2.72 0 0 Z " fill="#616171" transform="translate(165,135)"/>
<path d="M0 0 C34.98 0 69.96 0 106 0 C106 2.31 106 4.62 106 7 C110.95 7 115.9 7 121 7 C121 9.64 121 12.28 121 15 C118.36 15 115.72 15 113 15 C113 17.64 113 20.28 113 23 C110.36 23 107.72 23 105 23 C105 15.74 105 8.48 105 1 C95.43 1 85.86 1 76 1 C76 2.98 76 4.96 76 7 C78.31 7 80.62 7 83 7 C83 11.95 83 16.9 83 22 C85.31 22 87.62 22 90 22 C90 24.64 90 27.28 90 30 C87.69 30 85.38 30 83 30 C83 27.69 83 25.38 83 23 C80.36 23 77.72 23 75 23 C75 18.05 75 13.1 75 8 C70.05 8 65.1 8 60 8 C60 10.31 60 12.62 60 15 C57.69 15 55.38 15 53 15 C53 17.31 53 19.62 53 22 C51 23 51 23 46 23 C45.67 30.26 45.34 37.52 45 45 C54.9 45 64.8 45 75 45 C75 42.36 75 39.72 75 37 C77.64 37 80.28 37 83 37 C83 37.33 83 37.66 83 38 C80.69 38 78.38 38 76 38 C76 42.95 76 47.9 76 53 C73.36 53 70.72 53 68 53 C68 57.95 68 62.9 68 68 C63.05 68 58.1 68 53 68 C53 72.95 53 77.9 53 83 C55.31 83 57.62 83 60 83 C60 92.9 60 102.8 60 113 C62.64 113 65.28 113 68 113 C68 115.31 68 117.62 68 120 C70.31 120 72.62 120 75 120 C75 122.64 75 125.28 75 128 C77.64 128 80.28 128 83 128 C83.02320204 136.8928541 83.04095514 145.78569772 83.05181217 154.67857552 C83.05702381 158.80818885 83.06409018 162.93778142 83.07543945 167.06738281 C83.0863295 171.0549833 83.09228979 175.04256386 83.09487724 179.03017807 C83.09672048 180.54915556 83.10031982 182.06813201 83.10573006 183.58710098 C83.11302172 185.71971213 83.11398752 187.85224161 83.11352539 189.98486328 C83.115746 191.1973172 83.11796661 192.40977112 83.12025452 193.65896606 C83 197 83 197 82 203 C75.07 203.33 68.14 203.66 61 204 C60.67 211.26 60.34 218.52 60 226 C57.69 226 55.38 226 53 226 C53 223.69 53 221.38 53 219 C50.36 219 47.72 219 45 219 C45 216.36 45 213.72 45 211 C37.74 211.33 30.48 211.66 23 212 C23 209.03 23 206.06 23 203 C18.05 203 13.1 203 8 203 C8 208.28 8 213.56 8 219 C5.545625 219.020625 3.09125 219.04125 0.5625 219.0625 C-0.21150146 219.071604 -0.98550293 219.08070801 -1.78295898 219.09008789 C-3.52221717 219.09724913 -5.26145304 219.05024702 -7 219 C-8 218 -8 218 -8.09765625 214.62109375 C-8.09191424 213.22652508 -8.07890228 211.83198403 -8.0625 210.4375 C-8.041875 207.983125 -8.02125 205.52875 -8 203 C-15.26 203 -22.52 203 -30 203 C-30 145.91 -30 88.82 -30 30 C-27.69 30 -25.38 30 -23 30 C-23 27.69 -23 25.38 -23 23 C-20.36 23 -17.72 23 -15 23 C-15 20.36 -15 17.72 -15 15 C-12.36 15 -9.72 15 -7 15 C-7 12.69 -7 10.38 -7 8 C-4.69 8 -2.38 8 0 8 C0 5.36 0 2.72 0 0 Z " fill="#5E5D4F" transform="translate(165,135)"/>
<path d="M0 0 C0.33 0 0.66 0 1 0 C1 2.31 1 4.62 1 7 C3.31 7 5.62 7 8 7 C8 51.88 8 96.76 8 143 C3.05 143 -1.9 143 -7 143 C-7 155.21 -7 167.42 -7 180 C-9.31 180 -11.62 180 -14 180 C-13.98839844 181.07121094 -13.97679687 182.14242187 -13.96484375 183.24609375 C-13.95546701 184.64322743 -13.94636669 186.04036299 -13.9375 187.4375 C-13.92912109 188.14455078 -13.92074219 188.85160156 -13.91210938 189.58007812 C-13.90346412 191.38693559 -13.94779989 193.19387603 -14 195 C-15 196 -15 196 -18.37890625 196.09765625 C-19.77347492 196.09191424 -21.16801597 196.07890228 -22.5625 196.0625 C-25.016875 196.041875 -27.47125 196.02125 -30 196 C-30 190.72 -30 185.44 -30 180 C-54.75 180 -79.5 180 -105 180 C-105 157.89 -105 135.78 -105 113 C-102.36 113 -99.72 113 -97 113 C-97 108.05 -97 103.1 -97 98 C-74.57146602 97.19097963 -52.4344543 97.00536902 -30 98 C-30 85.46 -30 72.92 -30 60 C-32.31 60 -34.62 60 -37 60 C-37 52.41 -37 44.82 -37 37 C-39.64 37 -42.28 37 -45 37 C-45 32.05 -45 27.1 -45 22 C-27.84 22 -10.68 22 7 22 C7 17.38 7 12.76 7 8 C4.69 8 2.38 8 0 8 C0 5.36 0 2.72 0 0 Z " fill="#545352" transform="translate(368,158)"/>
<path d="M0 0 C4.95 0 9.9 0 15 0 C15 19.8 15 39.6 15 60 C39.75 60 64.5 60 90 60 C90 65.28 90 70.56 90 76 C94.95 75.67 99.9 75.34 105 75 C105.33 70.05 105.66 65.1 106 60 C108.31 60 110.62 60 113 60 C113 47.79 113 35.58 113 23 C117.95 23 122.9 23 128 23 C128 37.85 128 52.7 128 68 C125.36 68 122.72 68 120 68 C120 70.31 120 72.62 120 75 C117.69 75 115.38 75 113 75 C113 77.64 113 80.28 113 83 C110.36 83 107.72 83 105 83 C105 85.31 105 87.62 105 90 C102.69 90 100.38 90 98 90 C98 92.64 98 95.28 98 98 C38.27 98 -21.46 98 -83 98 C-83 95.36 -83 92.72 -83 90 C-85.31 90 -87.62 90 -90 90 C-90 87.69 -90 85.38 -90 83 C-92.64 83 -95.28 83 -98 83 C-98 80.36 -98 77.72 -98 75 C-100.31 75 -102.62 75 -105 75 C-105 72.69 -105 70.38 -105 68 C-107.64 68 -110.28 68 -113 68 C-113 65.36 -113 62.72 -113 60 C-105.74 60 -98.48 60 -91 60 C-90.67 64.95 -90.34 69.9 -90 75 C-85.05 75.33 -80.1 75.66 -75 76 C-75 70.72 -75 65.44 -75 60 C-70.05 60 -65.1 60 -60 60 C-59.505 63.96 -59.505 63.96 -59 68 C-52.07 68 -45.14 68 -38 68 C-38 70.64 -38 73.28 -38 76 C-35.36 76 -32.72 76 -30 76 C-30 78.31 -30 80.62 -30 83 C-27.69 83 -25.38 83 -23 83 C-23.00523682 82.3387915 -23.01047363 81.67758301 -23.01586914 80.99633789 C-23.03657656 78.01840149 -23.04964012 75.04048018 -23.0625 72.0625 C-23.07087891 71.02158203 -23.07925781 69.98066406 -23.08789062 68.90820312 C-23.09111328 67.91884766 -23.09433594 66.92949219 -23.09765625 65.91015625 C-23.10289307 64.99371338 -23.10812988 64.07727051 -23.11352539 63.13305664 C-23 61 -23 61 -22 60 C-15.07 60 -8.14 60 -1 60 C-0.67 40.2 -0.34 20.4 0 0 Z " fill="#4B4A36" transform="translate(248,278)"/>
<path d="M0 0 C34.98 0 69.96 0 106 0 C106 2.31 106 4.62 106 7 C110.95 7 115.9 7 121 7 C121 9.64 121 12.28 121 15 C118.36 15 115.72 15 113 15 C113 17.64 113 20.28 113 23 C110.36 23 107.72 23 105 23 C105 15.74 105 8.48 105 1 C95.43 1 85.86 1 76 1 C76 2.98 76 4.96 76 7 C78.31 7 80.62 7 83 7 C83 11.95 83 16.9 83 22 C85.31 22 87.62 22 90 22 C90 24.64 90 27.28 90 30 C87.69 30 85.38 30 83 30 C83 27.69 83 25.38 83 23 C80.36 23 77.72 23 75 23 C75 18.05 75 13.1 75 8 C70.05 8 65.1 8 60 8 C60 10.31 60 12.62 60 15 C57.69 15 55.38 15 53 15 C53 17.31 53 19.62 53 22 C51 23 51 23 46 23 C45.67 30.26 45.34 37.52 45 45 C54.9 45 64.8 45 75 45 C75 42.36 75 39.72 75 37 C77.64 37 80.28 37 83 37 C83 37.33 83 37.66 83 38 C80.69 38 78.38 38 76 38 C76 42.95 76 47.9 76 53 C73.36 53 70.72 53 68 53 C68 57.95 68 62.9 68 68 C63.05 68 58.1 68 53 68 C53 72.95 53 77.9 53 83 C55.31 83 57.62 83 60 83 C60 92.24 60 101.48 60 111 C59.67 111 59.34 111 59 111 C59 104.4 59 97.8 59 91 C41.675 91.495 41.675 91.495 24 92 C23.27562166 95.62189172 22.88414407 98.23765264 22.9375 101.8125 C22.958125 103.194375 22.97875 104.57625 23 106 C18.05 106.33 13.1 106.66 8 107 C8 99.08 8 91.16 8 83 C-4.21 83 -16.42 83 -29 83 C-29.2475 74.3375 -29.2475 74.3375 -29.5 65.5 C-29.55220703 63.71400391 -29.60441406 61.92800781 -29.65820312 60.08789062 C-29.94180703 50.05506228 -30.06268762 40.03698528 -30 30 C-27.69 30 -25.38 30 -23 30 C-23 27.69 -23 25.38 -23 23 C-20.36 23 -17.72 23 -15 23 C-15 20.36 -15 17.72 -15 15 C-12.36 15 -9.72 15 -7 15 C-7 12.69 -7 10.38 -7 8 C-4.69 8 -2.38 8 0 8 C0 5.36 0 2.72 0 0 Z " fill="#616170" transform="translate(165,135)"/>
<path d="M0 0 C0.33 0 0.66 0 1 0 C1 12.21 1 24.42 1 37 C13.21 37 25.42 37 38 37 C38.04010881 53.68972122 38.04010881 53.68972122 38.04882812 60.83007812 C38.05479479 65.6931264 38.06183673 70.55615576 38.07543945 75.41918945 C38.08634283 79.34195602 38.09229258 83.26470228 38.09487724 87.18748283 C38.0967181 88.68051409 38.10031275 90.17354429 38.10573006 91.66656685 C38.11303949 93.76544683 38.11398679 95.86424401 38.11352539 97.96313477 C38.115746 99.15560318 38.11796661 100.34807159 38.12025452 101.57667542 C37.99602111 105.11326833 37.56238201 108.50845432 37 112 C39.64 112 42.28 112 45 112 C45 119.26 45 126.52 45 134 C47.64 134 50.28 134 53 134 C53 139.28 53 144.56 53 150 C55.31 150 57.62 150 60 150 C60 152.31 60 154.62 60 157 C62.64 157 65.28 157 68 157 C68 159.64 68 162.28 68 165 C63.05 165.33 58.1 165.66 53 166 C53 163.03 53 160.06 53 157 C48.05 157 43.1 157 38 157 C38 162.28 38 167.56 38 173 C35.545625 173.020625 33.09125 173.04125 30.5625 173.0625 C29.78849854 173.071604 29.01449707 173.08070801 28.21704102 173.09008789 C26.47778283 173.09724913 24.73854696 173.05024702 23 173 C22 172 22 172 21.90234375 168.62109375 C21.90808576 167.22652508 21.92109772 165.83198403 21.9375 164.4375 C21.958125 161.983125 21.97875 159.52875 22 157 C14.74 157 7.48 157 0 157 C0 105.19 0 53.38 0 0 Z " fill="#46464C" transform="translate(135,181)"/>
<path d="M0 0 C2.31 0 4.62 0 7 0 C7 2.31 7 4.62 7 7 C9.64 7 12.28 7 15 7 C15 17.23 15 27.46 15 38 C17.31 38 19.62 38 22 38 C22 35.36 22 32.72 22 30 C26.95 30 31.9 30 37 30 C37 32.64 37 35.28 37 38 C34.69 38 32.38 38 30 38 C30 52.85 30 67.7 30 83 C27.36 83 24.72 83 22 83 C22 85.64 22 88.28 22 91 C19.69 91 17.38 91 15 91 C15 95.95 15 100.9 15 106 C12.36 106 9.72 106 7 106 C7 108.31 7 110.62 7 113 C2.05 113 -2.9 113 -8 113 C-8 108.05 -8 103.1 -8 98 C-10.64 98 -13.28 98 -16 98 C-16 95.36 -16 92.72 -16 90 C-18.31 90 -20.62 90 -23 90 C-23 87.69 -23 85.38 -23 83 C-25.64 83 -28.28 83 -31 83 C-31 73.1 -31 63.2 -31 53 C-33.31 53 -35.62 53 -38 53 C-38 48.05 -38 43.1 -38 38 C-33.05 38 -28.1 38 -23 38 C-23 33.05 -23 28.1 -23 23 C-20.36 23 -17.72 23 -15 23 C-15 18.05 -15 13.1 -15 8 C-12.69 8 -10.38 8 -8 8 C-8 12.95 -8 17.9 -8 23 C-3.05 23 1.9 23 7 23 C7 20.36 7 17.72 7 15 C4.69 15 2.38 15 0 15 C0 10.05 0 5.1 0 0 Z " fill="#E9564B" transform="translate(256,165)"/>
<path d="M0 0 C0.33 0 0.66 0 1 0 C1 2.31 1 4.62 1 7 C3.31 7 5.62 7 8 7 C8 51.88 8 96.76 8 143 C3.05 143 -1.9 143 -7 143 C-7 132.77 -7 122.54 -7 112 C-10.465 112.495 -10.465 112.495 -14 113 C-14.33 117.95 -14.66 122.9 -15 128 C-19.95 128 -24.9 128 -30 128 C-30 105.56 -30 83.12 -30 60 C-32.31 60 -34.62 60 -37 60 C-37 52.41 -37 44.82 -37 37 C-39.64 37 -42.28 37 -45 37 C-45 32.05 -45 27.1 -45 22 C-27.84 22 -10.68 22 7 22 C7 17.38 7 12.76 7 8 C4.69 8 2.38 8 0 8 C0 5.36 0 2.72 0 0 Z " fill="#505059" transform="translate(368,158)"/>
<path d="M0 0 C17.16 0 34.32 0 52 0 C52 4.95 52 9.9 52 15 C54.64 15 57.28 15 60 15 C60 22.59 60 30.18 60 38 C62.31 38 64.62 38 67 38 C67.94626754 44.36853072 68.15129434 50.56665166 68.125 57 C68.12886719 57.94617188 68.13273437 58.89234375 68.13671875 59.8671875 C68.13542969 60.79789063 68.13414062 61.72859375 68.1328125 62.6875 C68.13168457 63.51636719 68.13055664 64.34523438 68.12939453 65.19921875 C67.96233584 68.81525142 67.44899205 72.40806362 67 76 C47.2 76 27.4 76 7 76 C7 73.36 7 70.72 7 68 C9.64 68 12.28 68 15 68 C15 53.15 15 38.3 15 23 C17.31 23 19.62 23 22 23 C22 20.36 22 17.72 22 15 C17.05 15 12.1 15 7 15 C7 17.64 7 20.28 7 23 C4.69 23 2.38 23 0 23 C0 15.41 0 7.82 0 0 Z " fill="#69685E" transform="translate(271,180)"/>
<path d="M0 0 C0 9.9 0 19.8 0 30 C-9.9 30 -19.8 30 -30 30 C-30 24.72 -30 19.44 -30 14 C-37.26 14 -44.52 14 -52 14 C-52 16.64 -52 19.28 -52 22 C-47.05 22 -42.1 22 -37 22 C-37 24.64 -37 27.28 -37 30 C-46.9 30 -56.8 30 -67 30 C-67 34.95 -67 39.9 -67 45 C-54.79 45 -42.58 45 -30 45 C-30 49.95 -30 54.9 -30 60 C-34.95 60 -39.9 60 -45 60 C-45 67.26 -45 74.52 -45 82 C-54.9 82 -64.8 82 -75 82 C-75 59.89 -75 37.78 -75 15 C-72.36 15 -69.72 15 -67 15 C-67 10.05 -67 5.1 -67 0 C-44.5991956 -1.13576621 -22.40609933 -0.78007309 0 0 Z " fill="#5B5A4C" transform="translate(338,256)"/>
<path d="M0 0 C9.57 0 19.14 0 29 0 C29 7.26 29 14.52 29 22 C31.64 22 34.28 22 37 22 C37 19.36 37 16.72 37 14 C41.95 14 46.9 14 52 14 C52 16.31 52 18.62 52 21 C54.64 21 57.28 21 60 21 C60 23.64 60 26.28 60 29 C62.31 29 64.62 29 67 29 C67 31.64 67 34.28 67 37 C69.64 37 72.28 37 75 37 C75 39.31 75 41.62 75 44 C60.15 44 45.3 44 30 44 C30 41.36 30 38.72 30 36 C27.36 36 24.72 36 22 36 C22 33.69 22 31.38 22 29 C19.69 29 17.38 29 15 29 C15 33.95 15 38.9 15 44 C17.31 44 19.62 44 22 44 C22 46.64 22 49.28 22 52 C17.05 52 12.1 52 7 52 C7 46.72 7 41.44 7 36 C4.36 36 1.72 36 -1 36 C-1 38.64 -1 41.28 -1 44 C-10.9 44 -20.8 44 -31 44 C-31.020625 40.390625 -31.04125 36.78125 -31.0625 33.0625 C-31.071604 31.92304932 -31.08070801 30.78359863 -31.09008789 29.60961914 C-31.09258545 28.71879639 -31.09508301 27.82797363 -31.09765625 26.91015625 C-31.10289307 25.99371338 -31.10812988 25.07727051 -31.11352539 24.13305664 C-31 22 -31 22 -30 21 C-28.00041636 20.95919217 -25.99954746 20.95745644 -24 21 C-23.67 18.69 -23.34 16.38 -23 14 C-20.69 14 -18.38 14 -16 14 C-16 11.69 -16 9.38 -16 7 C-11.05 7 -6.1 7 -1 7 C-1 11.95 -1 16.9 -1 22 C1.64 22 4.28 22 7 22 C7 24.31 7 26.62 7 29 C9.31 29 11.62 29 14 29 C14 26.36 14 23.72 14 21 C11.69 21 9.38 21 7 21 C7 16.05 7 11.1 7 6 C4.69 6 2.38 6 0 6 C0 4.02 0 2.04 0 0 Z " fill="#75746F" transform="translate(241,136)"/>
<path d="M0 0 C4.95 0 9.9 0 15 0 C15 14.85 15 29.7 15 45 C12.36 45 9.72 45 7 45 C7 47.31 7 49.62 7 52 C4.69 52 2.38 52 0 52 C0 54.64 0 57.28 0 60 C-2.64 60 -5.28 60 -8 60 C-8 62.31 -8 64.62 -8 67 C-10.31 67 -12.62 67 -15 67 C-15 69.64 -15 72.28 -15 75 C-40.08 75 -65.16 75 -91 75 C-91 72.36 -91 69.72 -91 67 C-86.05 67 -81.1 67 -76 67 C-76 64.69 -76 62.38 -76 60 C-73.36 60 -70.72 60 -68 60 C-68 57.69 -68 55.38 -68 53 C-65.36 53 -62.72 53 -60 53 C-60 50.36 -60 47.72 -60 45 C-57.36 45 -54.72 45 -52 45 C-52 42.69 -52 40.38 -52 38 C-45.8323971 36.90142276 -39.81584877 36.88460896 -33.5625 36.9375 C-32.54478516 36.94201172 -31.52707031 36.94652344 -30.47851562 36.95117188 C-27.98565142 36.96287546 -25.4928178 36.98080808 -23 37 C-23 42.28 -23 47.56 -23 53 C-18.05 52.67 -13.1 52.34 -8 52 C-7.67 47.05 -7.34 42.1 -7 37 C-4.69 37 -2.38 37 0 37 C0 24.79 0 12.58 0 0 Z " fill="#363638" transform="translate(361,301)"/>
<path d="M0 0 C2.64 0 5.28 0 8 0 C8 0.33 8 0.66 8 1 C5.69 1 3.38 1 1 1 C1 5.95 1 10.9 1 16 C-1.64 16 -4.28 16 -7 16 C-7 20.95 -7 25.9 -7 31 C-11.95 31 -16.9 31 -22 31 C-22 35.95 -22 40.9 -22 46 C-19.69 46 -17.38 46 -15 46 C-15 55.24 -15 64.48 -15 74 C-15.33 74 -15.66 74 -16 74 C-16 67.4 -16 60.8 -16 54 C-33.325 54.495 -33.325 54.495 -51 55 C-51.72437834 58.62189172 -52.11585593 61.23765264 -52.0625 64.8125 C-52.041875 66.194375 -52.02125 67.57625 -52 69 C-56.95 69.33 -61.9 69.66 -67 70 C-67 62.08 -67 54.16 -67 46 C-64.69 46 -62.38 46 -60 46 C-60 38.41 -60 30.82 -60 23 C-57.36 23 -54.72 23 -52 23 C-52 18.05 -52 13.1 -52 8 C-34.84 8 -17.68 8 0 8 C0 5.36 0 2.72 0 0 Z " fill="#68665C" transform="translate(240,172)"/>
<path d="M0 0 C7.26 0 14.52 0 22 0 C22.33 4.95 22.66 9.9 23 15 C27.95 15.33 32.9 15.66 38 16 C38 10.72 38 5.44 38 0 C42.95 0 47.9 0 53 0 C53.495 3.96 53.495 3.96 54 8 C60.93 8 67.86 8 75 8 C75 10.64 75 13.28 75 16 C77.64 16 80.28 16 83 16 C83 18.31 83 20.62 83 23 C85.31 23 87.62 23 90 23 C90 25.31 90 27.62 90 30 C95.28 30 100.56 30 106 30 C106 32.64 106 35.28 106 38 C80.92 38 55.84 38 30 38 C30 35.36 30 32.72 30 30 C27.69 30 25.38 30 23 30 C23 27.69 23 25.38 23 23 C20.36 23 17.72 23 15 23 C15 20.36 15 17.72 15 15 C12.69 15 10.38 15 8 15 C8 12.69 8 10.38 8 8 C5.36 8 2.72 8 0 8 C0 5.36 0 2.72 0 0 Z " fill="#343434" transform="translate(135,338)"/>
<path d="M0 0 C4.95 0 9.9 0 15 0 C15 2.64 15 5.28 15 8 C17.64 8 20.28 8 23 8 C23 15.26 23 22.52 23 30 C25.31 30 27.62 30 30 30 C30 35.28 30 40.56 30 46 C27.69 46 25.38 46 23 46 C23 50.95 23 55.9 23 61 C20.36 61 17.72 61 15 61 C15 63.31 15 65.62 15 68 C10.05 68 5.1 68 0 68 C0 63.05 0 58.1 0 53 C-2.64 53 -5.28 53 -8 53 C-8 50.36 -8 47.72 -8 45 C-10.31 45 -12.62 45 -15 45 C-15 42.69 -15 40.38 -15 38 C-12.69 38 -10.38 38 -8 38 C-8 28.1 -8 18.2 -8 8 C-5.36 8 -2.72 8 0 8 C0 5.36 0 2.72 0 0 Z " fill="#FC8F65" transform="translate(248,210)"/>
<path d="M0 0 C0.33 0 0.66 0 1 0 C1 2.64 1 5.28 1 8 C-1.31 8 -3.62 8 -6 8 C-6 12.62 -6 17.24 -6 22 C11.16 22 28.32 22 46 22 C46 26.95 46 31.9 46 37 C43.36 37 40.72 37 38 37 C38 44.59 38 52.18 38 60 C23.48 60 8.96 60 -6 60 C-6.2475 51.3375 -6.2475 51.3375 -6.5 42.5 C-6.55220703 40.71400391 -6.60441406 38.92800781 -6.65820312 37.08789062 C-6.94180703 27.05506228 -7.06268762 17.03698528 -7 7 C-4.69 7 -2.38 7 0 7 C0 4.69 0 2.38 0 0 Z " fill="#5B5B68" transform="translate(142,158)"/>
<path d="M0 0 C1.2065625 0.0309375 1.2065625 0.0309375 2.4375 0.0625 C3.83177429 6.03205954 3.32433874 11.87436873 3 17.9375 C2.814375 21.60875 2.62875 25.28 2.4375 29.0625 C14.9775 29.0625 27.5175 29.0625 40.4375 29.0625 C40.4375 34.0125 40.4375 38.9625 40.4375 44.0625 C35.4875 44.0625 30.5375 44.0625 25.4375 44.0625 C25.4375 51.3225 25.4375 58.5825 25.4375 66.0625 C15.5375 66.0625 5.6375 66.0625 -4.5625 66.0625 C-4.5857405 60.01996882 -4.60556491 53.97759925 -4.61743164 47.93505859 C-4.62239044 45.88915475 -4.62915952 43.8432543 -4.63793945 41.79736328 C-4.68275746 31.06740584 -4.63054133 20.36045613 -4.12109375 9.640625 C-4.08210464 8.78684265 -4.04311554 7.9330603 -4.00294495 7.05340576 C-3.62931961 0.08851999 -3.62931961 0.08851999 0 0 Z " fill="#555444" transform="translate(267.5625,271.9375)"/>
<path d="M0 0 C0.33 0 0.66 0 1 0 C1 2.31 1 4.62 1 7 C3.31 7 5.62 7 8 7 C8.02526692 14.38728102 8.0428316 21.77455098 8.05493164 29.16186523 C8.05997363 31.67716895 8.06680703 34.19246972 8.07543945 36.70776367 C8.08751094 40.31429775 8.09322949 43.92079323 8.09765625 47.52734375 C8.10281754 48.65961899 8.10797882 49.79189423 8.11329651 50.95848083 C8.11337204 51.99948441 8.11344757 53.04048798 8.11352539 54.11303711 C8.115746 55.03459091 8.11796661 55.95614471 8.12025452 56.90562439 C8 59 8 59 7 60 C5.43827255 60.08685603 3.87270656 60.10702219 2.30859375 60.09765625 C1.36435547 60.09443359 0.42011719 60.09121094 -0.55273438 60.08789062 C-1.54595703 60.07951172 -2.53917969 60.07113281 -3.5625 60.0625 C-4.55958984 60.05798828 -5.55667969 60.05347656 -6.58398438 60.04882812 C-9.05604849 60.03700007 -11.52799518 60.02051849 -14 60 C-14.8679851 54.79892395 -15.12463484 49.82856535 -15.0625 44.5625 C-15.041875 42.066875 -15.02125 39.57125 -15 37 C-24.9 37 -34.8 37 -45 37 C-45 32.05 -45 27.1 -45 22 C-27.84 22 -10.68 22 7 22 C7 17.38 7 12.76 7 8 C4.69 8 2.38 8 0 8 C0 5.36 0 2.72 0 0 Z " fill="#555562" transform="translate(368,158)"/>
<path d="M0 0 C4.95 0 9.9 0 15 0 C15 27.39 15 54.78 15 83 C10.05 83 5.1 83 0 83 C0 55.61 0 28.22 0 0 Z " fill="#2A1010" transform="translate(248,278)"/>
<path d="M0 0 C0 15.18 0 30.36 0 46 C-4.95 46 -9.9 46 -15 46 C-15 35.77 -15 25.54 -15 15 C-17.31 15.33 -19.62 15.66 -22 16 C-22.33 20.95 -22.66 25.9 -23 31 C-27.95 31 -32.9 31 -38 31 C-37.67 21.1 -37.34 11.2 -37 1 C-24.69351713 0.12096551 -12.33783702 0 0 0 Z " fill="#44444A" transform="translate(376,255)"/>
<path d="M0 0 C7.26 0 14.52 0 22 0 C22 5.28 22 10.56 22 16 C31.9 16 41.8 16 52 16 C52 18.31 52 20.62 52 23 C50.02 23.33 48.04 23.66 46 24 C45.67 26.31 45.34 28.62 45 31 C24.98187901 32.4619976 5.03360211 31.68710675 -15 31 C-15 26.05 -15 21.1 -15 16 C-5.1 16 4.8 16 15 16 C15 13.36 15 10.72 15 8 C10.05 8 5.1 8 0 8 C0 5.36 0 2.72 0 0 Z " fill="#68675B" transform="translate(286,270)"/>
<path d="M0 0 C7.59 0 15.18 0 23 0 C23 7.59 23 15.18 23 23 C25.31 23 27.62 23 30 23 C30 25.31 30 27.62 30 30 C32.64 30 35.28 30 38 30 C38 32.64 38 35.28 38 38 C25.79 38.33 13.58 38.66 1 39 C0.36549923 33.2894931 -0.12213692 28.21362795 -0.09765625 22.55859375 C-0.09553383 21.57887352 -0.09553383 21.57887352 -0.09336853 20.57936096 C-0.0878559 18.53202352 -0.07532135 16.48480331 -0.0625 14.4375 C-0.05747366 13.03320473 -0.05291276 11.6289077 -0.04882812 10.22460938 C-0.03711602 6.81638751 -0.01918305 3.408188 0 0 Z " fill="#505059" transform="translate(142,263)"/>
<path d="M0 0 C4.95 0 9.9 0 15 0 C15 17.49 15 34.98 15 53 C10.05 53 5.1 53 0 53 C0 35.51 0 18.02 0 0 Z " fill="#FEB46F" transform="translate(248,225)"/>
<path d="M0 0 C6.93 -0.0309375 6.93 -0.0309375 14 -0.0625 C16.16175781 -0.07615601 16.16175781 -0.07615601 18.3671875 -0.09008789 C24.67345702 -0.10369412 30.7698385 -0.00922259 37 1 C37.87801178 11.03442033 38.1176305 20.93605753 38 31 C35.36 31 32.72 31 30 31 C30 23.41 30 15.82 30 8 C22.41 8 14.82 8 7 8 C7.33 20.54 7.66 33.08 8 46 C2 46 2 46 0 45 C0 30.15 0 15.3 0 0 Z " fill="#44444A" transform="translate(135,255)"/>
<path d="M0 0 C12.21 0 24.42 0 37 0 C37 4.62 37 9.24 37 14 C33.50029284 14.19610428 30.00052453 14.38212946 26.5 14.5625 C25.02660156 14.64661133 25.02660156 14.64661133 23.5234375 14.73242188 C17.85313239 15.01593713 12.60805516 14.90129458 7 14 C7 11.69 7 9.38 7 7 C4.69 7 2.38 7 0 7 C0 4.69 0 2.38 0 0 Z " fill="#646357" transform="translate(188,324)"/>
<path d="M0 0 C10.23 0 20.46 0 31 0 C31 2.31 31 4.62 31 7 C35.95 7 40.9 7 46 7 C46 9.64 46 12.28 46 15 C43.36 15 40.72 15 38 15 C38 17.64 38 20.28 38 23 C35.36 23 32.72 23 30 23 C30 15.74 30 8.48 30 1 C20.43 1 10.86 1 1 1 C1 2.98 1 4.96 1 7 C3.31 7 5.62 7 8 7 C8 11.95 8 16.9 8 22 C10.31 22 12.62 22 15 22 C15 24.64 15 27.28 15 30 C12.69 30 10.38 30 8 30 C8 27.69 8 25.38 8 23 C5.36 23 2.72 23 0 23 C0 15.41 0 7.82 0 0 Z " fill="#976561" transform="translate(240,135)"/>
<path d="M0 0 C0.33 0 0.66 0 1 0 C1.1637024 12.69603076 0.65910557 25.32273538 0 38 C-2.31 38 -4.62 38 -7 38 C-7 35.69 -7 33.38 -7 31 C-9.64 31 -12.28 31 -15 31 C-15 28.36 -15 25.72 -15 23 C-17.31 23 -19.62 23 -22 23 C-22.04241723 20.66705225 -22.04092937 18.33297433 -22 16 C-21 15 -21 15 -18.95874023 14.88647461 C-18.08419189 14.89171143 -17.20964355 14.89694824 -16.30859375 14.90234375 C-15.36435547 14.90556641 -14.42011719 14.90878906 -13.44726562 14.91210938 C-12.45404297 14.92048828 -11.46082031 14.92886719 -10.4375 14.9375 C-9.44041016 14.94201172 -8.44332031 14.94652344 -7.41601562 14.95117188 C-4.94398513 14.96299977 -2.47198528 14.98093585 0 15 C0 10.05 0 5.1 0 0 Z " fill="#585747" transform="translate(225,323)"/>
<path d="M0 0 C3.6815625 -0.0309375 3.6815625 -0.0309375 7.4375 -0.0625 C8.21150146 -0.071604 8.98550293 -0.08070801 9.78295898 -0.09008789 C11.52221717 -0.09724913 13.26145304 -0.05024702 15 0 C16 1 16 1 16.09765625 4.37890625 C16.09191424 5.77347492 16.07890228 7.16801597 16.0625 8.5625 C16.041875 11.016875 16.02125 13.47125 16 16 C10.72 16 5.44 16 0 16 C0 10.72 0 5.44 0 0 Z " fill="#2BDF53" transform="translate(338,157)"/>
<path d="M0 0 C1.39456867 0.00574201 2.78910972 0.01875397 4.18359375 0.03515625 C6.63796875 0.05578125 9.09234375 0.07640625 11.62109375 0.09765625 C11.62109375 5.37765625 11.62109375 10.65765625 11.62109375 16.09765625 C6.34109375 16.09765625 1.06109375 16.09765625 -4.37890625 16.09765625 C-4.39953125 13.64328125 -4.42015625 11.18890625 -4.44140625 8.66015625 C-4.45051025 7.88615479 -4.45961426 7.11215332 -4.46899414 6.31469727 C-4.47615538 4.57543908 -4.42915327 2.83620321 -4.37890625 1.09765625 C-3.37890625 0.09765625 -3.37890625 0.09765625 0 0 Z " fill="#E0382D" transform="translate(161.37890625,156.90234375)"/>
<path d="M0 0 C4.62 0 9.24 0 14 0 C14 4.62 14 9.24 14 14 C9.38 14 4.76 14 0 14 C0 9.38 0 4.76 0 0 Z " fill="#FFF957" transform="translate(339,339)"/>
<path d="M0 0 C4.62 0 9.24 0 14 0 C14 4.62 14 9.24 14 14 C9.38 14 4.76 14 0 14 C0 9.38 0 4.76 0 0 Z " fill="#C4C4D3" transform="translate(158,339)"/>
<path d="M0 0 C7.59 0 15.18 0 23 0 C23 0.33 23 0.66 23 1 C20.69 1 18.38 1 16 1 C16 3.31 16 5.62 16 8 C13.36 8 10.72 8 8 8 C8 10.31 8 12.62 8 15 C5.36 15 2.72 15 0 15 C0 10.05 0 5.1 0 0 Z " fill="#515041" transform="translate(293,338)"/>
<path d="M0 0 C7.59 0 15.18 0 23 0 C23 2.64 23 5.28 23 8 C15.41 8 7.82 8 0 8 C0 5.36 0 2.72 0 0 Z " fill="#4C4C55" transform="translate(165,180)"/>
<path d="M0 0 C7.26 0 14.52 0 22 0 C22 2.31 22 4.62 22 7 C21 8 21 8 18.95874023 8.11352539 C18.08419189 8.10828857 17.20964355 8.10305176 16.30859375 8.09765625 C15.36435547 8.09443359 14.42011719 8.09121094 13.44726562 8.08789062 C12.45404297 8.07951172 11.46082031 8.07113281 10.4375 8.0625 C9.44041016 8.05798828 8.44332031 8.05347656 7.41601562 8.04882812 C4.94395151 8.03700007 2.47200482 8.02051849 0 8 C0 5.36 0 2.72 0 0 Z " fill="#616054" transform="translate(188,180)"/>
<path d="M0 0 C2.31 0 4.62 0 7 0 C7 2.31 7 4.62 7 7 C9.64 7 12.28 7 15 7 C15 9.64 15 12.28 15 15 C10.05 15.33 5.1 15.66 0 16 C0 10.72 0 5.44 0 0 Z " fill="#454549" transform="translate(188,331)"/>
<path d="M0 0 C2.31 0 4.62 0 7 0 C7 2.64 7 5.28 7 8 C9.64 8 12.28 8 15 8 C15 10.31 15 12.62 15 15 C10.05 15 5.1 15 0 15 C0 10.05 0 5.1 0 0 Z " fill="#FC9065" transform="translate(248,263)"/>
<path d="M0 0 C2.31 0 4.62 0 7 0 C7 4.95 7 9.9 7 15 C2.05 15 -2.9 15 -8 15 C-8 12.69 -8 10.38 -8 8 C-5.36 8 -2.72 8 0 8 C0 5.36 0 2.72 0 0 Z " fill="#6B6A62" transform="translate(203,165)"/>
<path d="M0 0 C7.26 0 14.52 0 22 0 C22 2.31 22 4.62 22 7 C14.74 7 7.48 7 0 7 C0 4.69 0 2.38 0 0 Z " fill="#44444A" transform="translate(150,233)"/>
<path d="M0 0 C4.62 0 9.24 0 14 0 C14 2.31 14 4.62 14 7 C11.69 7 9.38 7 7 7 C7 9.31 7 11.62 7 14 C4.69 14 2.38 14 0 14 C0 9.38 0 4.76 0 0 Z " fill="#ED554A" transform="translate(271,143)"/>
<path d="M0 0 C0.33 0 0.66 0 1 0 C1 7.26 1 14.52 1 22 C3.31 22 5.62 22 8 22 C8 24.64 8 27.28 8 30 C3.05 30 -1.9 30 -7 30 C-7 27.36 -7 24.72 -7 22 C-4.69 22 -2.38 22 0 22 C0 14.74 0 7.48 0 0 Z " fill="#78675D" transform="translate(255,158)"/>
<path d="M0 0 C2.64 0 5.28 0 8 0 C8.09038099 5.15171623 7.84681133 9.91913204 7 15 C4.69 15 2.38 15 0 15 C0 10.05 0 5.1 0 0 Z " fill="#5C5B4D" transform="translate(263,323)"/>
<path d="M0 0 C2.31 0 4.62 0 7 0 C7 4.95 7 9.9 7 15 C4.69 15 2.38 15 0 15 C0 10.05 0 5.1 0 0 Z " fill="#471C1C" transform="translate(248,293)"/>
<path d="M0 0 C2.31 0 4.62 0 7 0 C7 4.62 7 9.24 7 14 C4.69 14 2.38 14 0 14 C0 9.38 0 4.76 0 0 Z " fill="#ED554A" transform="translate(286,158)"/>
<path d="M0 0 C2.31 0 4.62 0 7 0 C7 4.62 7 9.24 7 14 C4.69 14 2.38 14 0 14 C0 9.38 0 4.76 0 0 Z " fill="#EC554A" transform="translate(241,143)"/>
<path d="M0 0 C4.95 0 9.9 0 15 0 C15 0.33 15 0.66 15 1 C12.69 1 10.38 1 8 1 C8 3.31 8 5.62 8 8 C5.36 8 2.72 8 0 8 C0 5.36 0 2.72 0 0 Z " fill="#461C1B" transform="translate(248,278)"/>
<path d="M0 0 C2.64 0 5.28 0 8 0 C8 2.64 8 5.28 8 8 C5.36 8 2.72 8 0 8 C0 5.36 0 2.72 0 0 Z " fill="#441A1A" transform="translate(248,323)"/>
<path d="M0 0 C2.31 0 4.62 0 7 0 C7 2.64 7 5.28 7 8 C4.69 8 2.38 8 0 8 C0 5.36 0 2.72 0 0 Z " fill="#E3564B" transform="translate(271,248)"/>
<path d="M0 0 C2.31 0 4.62 0 7 0 C7 2.64 7 5.28 7 8 C4.69 8 2.38 8 0 8 C0 5.36 0 2.72 0 0 Z " fill="#E6564C" transform="translate(218,180)"/>
<path d="M0 0 C2.31 0 4.62 0 7 0 C7 2.31 7 4.62 7 7 C4.69 7 2.38 7 0 7 C0 4.69 0 2.38 0 0 Z " fill="#4E4E57" transform="translate(188,331)"/>
<path d="M0 0 C2.31 0 4.62 0 7 0 C7 2.31 7 4.62 7 7 C4.69 7 2.38 7 0 7 C0 4.69 0 2.38 0 0 Z " fill="#ED554A" transform="translate(248,158)"/>
<path d="M0 0 C1.98 0 3.96 0 6 0 C6 2.31 6 4.62 6 7 C4.02 7 2.04 7 0 7 C0 4.69 0 2.38 0 0 Z " fill="#646357" transform="translate(264,324)"/>
</svg>
